<svg width="800" height="600" xmlns="http://www.w3.org/2000/svg">
<rect width="100%" height="100%" fill="#ffffff"/>
<text x="400" y="50" text-anchor="middle" font-family="sans-serif" font-size="24" font-weight="bold">SIMD Tangent Performance Comparison</text>
<text x="400" y="75" text-anchor="middle" font-family="sans-serif" font-size="14" fill="#666">Block Size: 512 samples | Average of 1,000,000 iterations</text>
<line x1="100" y1="100.0" x2="700" y2="100.0" stroke="#eee" />
<text x="90" y="105.0" text-anchor="end" font-family="sans-serif" font-size="12" fill="#999">6.5 us</text>
<line x1="100" y1="200.0" x2="700" y2="200.0" stroke="#eee" />
<text x="90" y="205.0" text-anchor="end" font-family="sans-serif" font-size="12" fill="#999">4.8 us</text>
<line x1="100" y1="300.0" x2="700" y2="300.0" stroke="#eee" />
<text x="90" y="305.0" text-anchor="end" font-family="sans-serif" font-size="12" fill="#999">3.2 us</text>
<line x1="100" y1="400.0" x2="700" y2="400.0" stroke="#eee" />
<text x="90" y="405.0" text-anchor="end" font-family="sans-serif" font-size="12" fill="#999">1.6 us</text>
<line x1="100" y1="500.0" x2="700" y2="500.0" stroke="#eee" />
<text x="90" y="505.0" text-anchor="end" font-family="sans-serif" font-size="12" fill="#999">0.0 us</text>
<rect x="140" y="100.0" width="150" height="400.0" fill="#3498db" rx="5"/>
<text x="215" y="90.0" text-anchor="middle" font-family="sans-serif" font-size="14" font-weight="bold" fill="#3498db">6.458 us</text>
<text x="215" y="525" text-anchor="middle" font-family="sans-serif" font-size="14" font-weight="bold">std::tan</text>
<text x="215" y="545" text-anchor="middle" font-family="sans-serif" font-size="12" fill="#666">Baseline</text>
<rect x="370" y="478.3050746678183" width="150" height="21.694925332181697" fill="#e74c3c" rx="5"/>
<text x="445" y="468.3050746678183" text-anchor="middle" font-family="sans-serif" font-size="14" font-weight="bold" fill="#e74c3c">0.350 us</text>
<text x="445" y="525" text-anchor="middle" font-family="sans-serif" font-size="14" font-weight="bold">Pade (Scalar)</text>
<text x="445" y="545" text-anchor="middle" font-family="sans-serif" font-size="12" fill="#666">18.4x faster</text>
<rect x="600" y="476.26937923429" width="150" height="23.73062076571" fill="#2ecc71" rx="5"/>
<text x="675" y="466.26937923429" text-anchor="middle" font-family="sans-serif" font-size="14" font-weight="bold" fill="#2ecc71">0.383 us</text>
<text x="675" y="525" text-anchor="middle" font-family="sans-serif" font-size="14" font-weight="bold">Pade (SIMD)</text>
<text x="675" y="545" text-anchor="middle" font-family="sans-serif" font-size="12" fill="#666">16.9x faster</text>
<line x1="100" y1="500" x2="700" y2="500" stroke="#ccc" stroke-width="2"/>
</svg>
